<svg width="148" height="40" viewBox="0 0 148 40" fill="none" xmlns="http://www.w3.org/2000/svg">
<path d="M60.87 21.168C60.87 18.462 60.892 16.504 59.308 14.92C58.208 13.82 56.866 13.204 55.084 13.204C53.302 13.204 51.938 13.82 50.838 14.92C49.254 16.504 49.298 18.462 49.298 21.168C49.298 23.874 49.254 25.832 50.838 27.416C51.938 28.516 53.302 29.132 55.084 29.132C56.866 29.132 58.208 28.516 59.308 27.416C60.892 25.832 60.87 23.874 60.87 21.168ZM57.812 21.168C57.812 24.182 57.636 24.908 57.042 25.568C56.602 26.074 55.92 26.404 55.084 26.404C54.248 26.404 53.544 26.074 53.104 25.568C52.51 24.908 52.356 24.182 52.356 21.168C52.356 18.154 52.51 17.428 53.104 16.768C53.544 16.262 54.248 15.932 55.084 15.932C55.92 15.932 56.602 16.262 57.042 16.768C57.636 17.428 57.812 18.154 57.812 21.168ZM73.2902 29V21.674C73.2902 20.42 73.0482 19.342 72.1242 18.418C71.4862 17.78 70.5622 17.406 69.4182 17.406C68.3622 17.406 67.3062 17.802 66.5582 18.594V17.538H63.7642V29H66.6242V22.07C66.6242 20.508 67.6362 19.98 68.5382 19.98C69.4402 19.98 70.4302 20.508 70.4302 22.07V29H73.2902ZM85.7915 24.16V22.884C85.7915 19.738 83.9875 17.406 80.7975 17.406C77.8275 17.406 75.8035 19.518 75.8035 23.258C75.8035 27.9 78.3995 29.132 81.1055 29.132C83.1735 29.132 84.2955 28.494 85.4615 27.328L83.7235 25.634C82.9975 26.36 82.3815 26.712 81.1275 26.712C79.5215 26.712 78.6195 25.634 78.6195 24.16H85.7915ZM82.9755 22.202H78.6195C78.6415 21.696 78.7075 21.388 78.8835 20.97C79.1915 20.288 79.8295 19.782 80.7975 19.782C81.7655 19.782 82.4035 20.288 82.7115 20.97C82.8875 21.388 82.9535 21.696 82.9755 22.202ZM98.7683 24.38C98.7683 22.994 98.3943 21.85 97.5583 21.058C96.8983 20.442 95.9963 20.046 94.5663 19.848L92.7183 19.584C92.0803 19.496 91.5743 19.254 91.2663 18.968C90.9363 18.66 90.8043 18.242 90.8043 17.846C90.8043 16.768 91.5963 15.866 93.2243 15.866C94.2583 15.866 95.4463 15.998 96.4363 16.944L98.3723 15.03C97.0303 13.732 95.4683 13.204 93.3123 13.204C89.9243 13.204 87.8563 15.162 87.8563 17.956C87.8563 19.276 88.2303 20.288 88.9783 21.036C89.6823 21.718 90.6723 22.136 92.0143 22.334L93.9063 22.598C94.6323 22.708 94.9843 22.862 95.2923 23.148C95.6223 23.456 95.7763 23.918 95.7763 24.468C95.7763 25.722 94.8083 26.404 93.0043 26.404C91.5523 26.404 90.2103 26.074 89.2203 25.084L87.2403 27.064C88.7803 28.626 90.5843 29.132 92.9603 29.132C96.2383 29.132 98.7683 27.416 98.7683 24.38ZM104.308 15.58V13.248H101.382V15.58H104.308ZM104.286 29V17.538H101.426V29H104.286ZM116.483 28.582V17.538H113.711V18.616C112.919 17.736 112.127 17.406 110.917 17.406C109.795 17.406 108.805 17.78 108.167 18.418C107.089 19.496 107.001 20.948 107.001 22.95C107.001 24.952 107.089 26.426 108.167 27.504C108.805 28.142 109.773 28.516 110.895 28.516C112.017 28.516 112.875 28.208 113.623 27.372V28.538C113.623 29.704 113.029 30.914 111.313 30.914C110.345 30.914 109.707 30.65 109.069 30.034L107.287 31.838C108.475 32.982 109.685 33.334 111.445 33.334C114.525 33.334 116.483 31.332 116.483 28.582ZM113.623 22.95C113.623 24.468 113.425 25.942 111.731 25.942C110.037 25.942 109.861 24.468 109.861 22.95C109.861 21.432 110.037 19.98 111.731 19.98C113.425 19.98 113.623 21.432 113.623 22.95ZM129.126 29V21.586C129.126 19.166 127.806 17.406 125.298 17.406C124.286 17.406 123.318 17.802 122.548 18.594V13.336H119.688V29H122.548V22.004C122.548 20.508 123.494 19.98 124.396 19.98C125.298 19.98 126.266 20.486 126.266 22.004V29H129.126ZM137.361 29V26.58H136.327C135.645 26.58 135.337 26.206 135.337 25.546V20.046H137.361V17.868H135.337V14.48H132.477V17.868H131.267V20.046H132.477V25.722C132.477 27.35 133.467 29 135.799 29H137.361Z" fill="url(#paint0_linear_92_13165)"/>
<path opacity="0.5" fill-rule="evenodd" clip-rule="evenodd" d="M19 17L28.5 22.7L38 28.4L19 40L0 28.8L9.5 23.1L19 17.4V17Z" fill="url(#paint1_linear_92_13165)"/>
<path opacity="0.5" d="M19 0L0 11.1429V29L19 17V0Z" fill="url(#paint2_linear_92_13165)"/>
<g opacity="0.92">
<path d="M3 17L8 20V24L3 21V17Z" fill="#1648D5"/>
<path fill-rule="evenodd" clip-rule="evenodd" d="M8 14L5.5 15.5L3 17L8 20L13 17L10.5 15.5L8 14Z" fill="url(#paint3_linear_92_13165)"/>
<path d="M13 17L8 20V24L13 21V17Z" fill="#6CB2F7"/>
</g>
<g opacity="0.92">
<path d="M12 12L17 15V29L12 26V12Z" fill="#1648D5"/>
<path fill-rule="evenodd" clip-rule="evenodd" d="M17 9L14.5 10.5L12 12L17 15L22 12L19.5 10.5L17 9Z" fill="url(#paint4_linear_92_13165)"/>
<path d="M22 12L17 15V29L22 26V12Z" fill="#6CB2F7"/>
</g>
<g opacity="0.92">
<path d="M22 8L27 11V35L22 32V8Z" fill="#1648D5"/>
<path fill-rule="evenodd" clip-rule="evenodd" d="M27 5L24.5 6.5L22 8L27 11L32 8L29.5 6.5L27 5Z" fill="url(#paint5_linear_92_13165)"/>
<path d="M32 8L27 11V35L32 32V8Z" fill="#6CB2F7"/>
</g>
<defs>
<linearGradient id="paint0_linear_92_13165" x1="163.418" y1="37.7838" x2="163.418" y2="9" gradientUnits="userSpaceOnUse">
<stop stop-color="#6991C7"/>
<stop offset="1" stop-color="white"/>
</linearGradient>
<linearGradient id="paint1_linear_92_13165" x1="34" y1="25.9224" x2="-0.495479" y2="28.9481" gradientUnits="userSpaceOnUse">
<stop stop-color="#62A9EE"/>
<stop offset="1" stop-color="#2873EE" stop-opacity="0.19"/>
</linearGradient>
<linearGradient id="paint2_linear_92_13165" x1="9.5" y1="3" x2="9.5" y2="29" gradientUnits="userSpaceOnUse">
<stop stop-color="#6CB2F7"/>
<stop offset="1" stop-color="#6CB2F7" stop-opacity="0.21"/>
</linearGradient>
<linearGradient id="paint3_linear_92_13165" x1="8" y1="14" x2="8" y2="20" gradientUnits="userSpaceOnUse">
<stop stop-color="#62A9EE"/>
<stop offset="1" stop-color="#2873EE"/>
</linearGradient>
<linearGradient id="paint4_linear_92_13165" x1="17" y1="9" x2="17" y2="15" gradientUnits="userSpaceOnUse">
<stop stop-color="#62A9EE"/>
<stop offset="1" stop-color="#2873EE"/>
</linearGradient>
<linearGradient id="paint5_linear_92_13165" x1="27" y1="5" x2="27" y2="11" gradientUnits="userSpaceOnUse">
<stop stop-color="#62A9EE"/>
<stop offset="1" stop-color="#2873EE"/>
</linearGradient>
</defs>
</svg>
